<svg width="30" height="30" viewBox="0 0 30 30" fill="none" xmlns="http://www.w3.org/2000/svg">
<g id="Add_round_fill">
<path id="Subtract" fill-rule="evenodd" clip-rule="evenodd" d="M25.9052 15.2285C25.9052 21.202 21.0627 26.0445 15.0892 26.0445C9.11569 26.0445 4.27319 21.202 4.27319 15.2285C4.27319 9.25497 9.11569 4.41248 15.0892 4.41248C21.0627 4.41248 25.9052 9.25497 25.9052 15.2285ZM15.0892 21.9584C14.691 21.9584 14.3682 21.6356 14.3682 21.2374V15.9496H9.08033C8.6821 15.9496 8.35926 15.6267 8.35926 15.2285C8.35926 14.8303 8.6821 14.5074 9.08033 14.5074H14.3682V9.21957C14.3682 8.82133 14.691 8.4985 15.0892 8.4985C15.4875 8.4985 15.8103 8.82133 15.8103 9.21957V14.5074H21.0981C21.4964 14.5074 21.8192 14.8303 21.8192 15.2285C21.8192 15.6267 21.4964 15.9496 21.0981 15.9496H15.8103V21.2374C15.8103 21.6356 15.4875 21.9584 15.0892 21.9584Z" fill="#6C9EBA"/>
</g>
</svg>
