<svg width="24" height="24" viewBox="0 0 24 24" fill="none" xmlns="http://www.w3.org/2000/svg">
<g id="Bread 1">
<rect width="24" height="24" fill="none"/>
<path id="Subtract" fill-rule="evenodd" clip-rule="evenodd" d="M16 16.5H18.5V9V7.5H20C20.2761 7.5 20.5 7.27614 20.5 7V5.5C20.5 4.39543 19.6046 3.5 18.5 3.5H9.5C8.39543 3.5 7.5 4.39543 7.5 5.5V6H6V5.5C6 3.567 7.567 2 9.5 2H18.5C20.433 2 22 3.567 22 5.5V7C22 8.10457 21.1046 9 20 9V10.5V17C20 17.5523 19.5523 18 19 18H16V16.5Z" fill="white"/>
<g id="Union">
<mask id="path-2-inside-1_58_788" fill="white">
<path fill-rule="evenodd" clip-rule="evenodd" d="M5.5 6C3.567 6 2 7.567 2 9.5V11C2 12.1046 2.89543 13 4 13V21C4 21.5523 4.44772 22 5 22H15C15.5523 22 16 21.5523 16 21V13C17.1046 13 18 12.1046 18 11V9.5C18 7.567 16.433 6 14.5 6H5.5Z"/>
</mask>
<path d="M4 13H5.5V11.5H4V13ZM16 13V11.5H14.5V13H16ZM3.5 9.5C3.5 8.39543 4.39543 7.5 5.5 7.5V4.5C2.73858 4.5 0.5 6.73858 0.5 9.5H3.5ZM3.5 11V9.5H0.5V11H3.5ZM4 11.5C3.72386 11.5 3.5 11.2761 3.5 11H0.5C0.5 12.933 2.067 14.5 4 14.5V11.5ZM5.5 21V13H2.5V21H5.5ZM5 20.5C5.27614 20.5 5.5 20.7239 5.5 21H2.5C2.5 22.3807 3.61929 23.5 5 23.5V20.5ZM15 20.5H5V23.5H15V20.5ZM14.5 21C14.5 20.7239 14.7239 20.5 15 20.5V23.5C16.3807 23.5 17.5 22.3807 17.5 21H14.5ZM14.5 13V21H17.5V13H14.5ZM16.5 11C16.5 11.2761 16.2761 11.5 16 11.5V14.5C17.933 14.5 19.5 12.933 19.5 11H16.5ZM16.5 9.5V11H19.5V9.5H16.5ZM14.5 7.5C15.6046 7.5 16.5 8.39543 16.5 9.5H19.5C19.5 6.73858 17.2614 4.5 14.5 4.5V7.5ZM5.5 7.5H14.5V4.5H5.5V7.5Z" fill="white" mask="url(#path-2-inside-1_58_788)"/>
</g>
</g>
</svg>
