<svg width="25" height="25" viewBox="0 0 25 25" fill="none" xmlns="http://www.w3.org/2000/svg">
<g id="Calendar Icon" clip-path="url(#clip0_17_565)">
<path id="Vector" d="M25 7.14338V20.5362C25 22.9032 23.158 24.8399 20.8292 24.991L20.5357 25.0005H4.46429C2.09733 25.0005 0.160644 23.1585 0.00949587 20.8298L0 20.5362V7.14338H25ZM7.14286 16.0719C6.15663 16.0719 5.35714 16.8714 5.35714 17.8577C5.35714 18.8439 6.15663 19.6434 7.14286 19.6434C8.12908 19.6434 8.92857 18.8439 8.92857 17.8577C8.92857 16.8714 8.12908 16.0719 7.14286 16.0719ZM12.5 16.0719C11.5138 16.0719 10.7143 16.8714 10.7143 17.8577C10.7143 18.8439 11.5138 19.6434 12.5 19.6434C13.4862 19.6434 14.2857 18.8439 14.2857 17.8577C14.2857 16.8714 13.4862 16.0719 12.5 16.0719ZM7.14286 10.7148C6.15663 10.7148 5.35714 11.5143 5.35714 12.5005C5.35714 13.4867 6.15663 14.2862 7.14286 14.2862C8.12908 14.2862 8.92857 13.4867 8.92857 12.5005C8.92857 11.5143 8.12908 10.7148 7.14286 10.7148ZM12.5 10.7148C11.5138 10.7148 10.7143 11.5143 10.7143 12.5005C10.7143 13.4867 11.5138 14.2862 12.5 14.2862C13.4862 14.2862 14.2857 13.4867 14.2857 12.5005C14.2857 11.5143 13.4862 10.7148 12.5 10.7148ZM17.8571 10.7148C16.8709 10.7148 16.0714 11.5143 16.0714 12.5005C16.0714 13.4867 16.8709 14.2862 17.8571 14.2862C18.8434 14.2862 19.6429 13.4867 19.6429 12.5005C19.6429 11.5143 18.8434 10.7148 17.8571 10.7148ZM20.5357 0.000518799C22.9027 0.000518799 24.8394 1.84253 24.9905 4.17127L25 4.4648V5.35766H0V4.4648C0 2.09787 1.84203 0.161164 4.17076 0.0100147L4.46429 0.000518799H20.5357Z" fill="white"/>
</g>
<defs>
<clipPath id="clip0_17_565">
<rect width="25" height="25" fill="white" transform="translate(0 0.000518799)"/>
</clipPath>
</defs>
</svg>
