<svg width="24" height="24" viewBox="0 0 24 24" fill="none" xmlns="http://www.w3.org/2000/svg">
<path d="M12.2285 8.00592L5.80727 14.4271C5.65402 14.5804 5.5774 14.657 5.52702 14.7511C5.47664 14.8453 5.45539 14.9515 5.41289 15.1641L4.64315 19.0127C4.59519 19.2525 4.5712 19.3725 4.63942 19.4407C4.70764 19.5089 4.82756 19.4849 5.06739 19.437L8.91605 18.6672C9.12857 18.6247 9.23483 18.6035 9.32896 18.5531C9.4231 18.5027 9.49972 18.4261 9.65297 18.2728L16.0742 11.8516L12.2285 8.00592Z" fill="#6C9EBA"/>
<path d="M13.3064 7.2776L5.95578 14.6282C5.94727 14.6367 5.93877 14.6452 5.9303 14.6537C5.8152 14.7684 5.70455 14.8788 5.62639 15.0168L6.00033 15.2285L5.62639 15.0168C5.54823 15.1549 5.51054 15.3065 5.47134 15.4643C5.46846 15.4759 5.46556 15.4875 5.46264 15.4992L4.74384 18.3744C4.7421 18.3814 4.74034 18.3884 4.73857 18.3955C4.71073 18.5066 4.67924 18.6322 4.66878 18.7391C4.65713 18.8582 4.6582 19.074 4.83218 19.2479C5.00617 19.4219 5.22194 19.423 5.341 19.4113C5.44791 19.4009 5.57357 19.3694 5.68466 19.3416C5.69174 19.3398 5.69875 19.338 5.7057 19.3363L8.58093 18.6175C8.59261 18.6146 8.60426 18.6117 8.61588 18.6088C8.77362 18.5696 8.92526 18.5319 9.06331 18.4537C9.20135 18.3756 9.31168 18.2649 9.42646 18.1498C9.43491 18.1414 9.44338 18.1329 9.4519 18.1243L16.8025 10.7737L16.8219 10.7544C17.0456 10.5306 17.2434 10.3329 17.3814 10.1521C17.5309 9.9561 17.6503 9.73002 17.6503 9.44806C17.6503 9.16609 17.5309 8.94001 17.3814 8.74401C17.2434 8.5632 17.0456 8.36547 16.8219 8.14174L16.8025 8.12239L15.9577 7.2776L15.9384 7.25825C15.7147 7.03448 15.5169 6.83673 15.3361 6.69877C15.1401 6.54923 14.914 6.42982 14.6321 6.42982C14.3501 6.42982 14.124 6.54923 13.928 6.69877C13.7472 6.83673 13.5495 7.03448 13.3257 7.25825L13.3064 7.2776Z" stroke="#6C9EBA" stroke-width="0.865282"/>
<path d="M12.2285 8.00592L16.0742 11.8516" stroke="#6C9EBA" stroke-width="0.865282"/>
</svg>
