<svg width="29" height="26" viewBox="0 0 29 26" fill="none" xmlns="http://www.w3.org/2000/svg">
<g id="Chat">
<path id="Rectangle 1" d="M4.94684 13.0682C4.94684 11.1562 4.94684 10.2001 5.14678 9.41341C5.73264 7.10812 7.53271 5.30805 9.838 4.72218C10.6247 4.52225 11.5808 4.52225 13.4928 4.52225H14.5611C17.4721 4.52225 18.9276 4.52225 20.0817 4.98076C21.7421 5.6404 23.0572 6.95542 23.7168 8.61585C24.1753 9.76999 24.1753 11.2255 24.1753 14.1365V18.73C24.1753 20.0896 24.1753 20.7695 23.7529 21.1918C23.3305 21.6142 22.6507 21.6142 21.2911 21.6142H13.4928C11.5808 21.6142 10.6247 21.6142 9.838 21.4143C7.53271 20.8284 5.73264 19.0284 5.14678 16.7231C4.94684 15.9364 4.94684 14.9803 4.94684 13.0682V13.0682Z" stroke="#6C9EBA" stroke-width="1.44214"/>
<path id="Vector 7" d="M10.9557 12L18.1664 12" stroke="#6C9EBA" stroke-width="1.44214" stroke-linecap="round" stroke-linejoin="round"/>
<path id="Vector 8" d="M14.561 16.273H18.1664" stroke="#6C9EBA" stroke-width="1.44214" stroke-linecap="round" stroke-linejoin="round"/>
</g>
</svg>
