<svg width="25" height="25" viewBox="0 0 25 25" fill="none" xmlns="http://www.w3.org/2000/svg">
<g id="Cookbook Icon">
<g id="Vector">
<path d="M9.69919 3.35424C7.81758 2.45588 5.18759 2.01581 1.66653 2.00019C1.33446 1.99568 1.0089 2.09251 0.733275 2.27777C0.507038 2.43069 0.321843 2.63686 0.193981 2.87815C0.0661185 3.11943 -0.000493897 3.38844 2.75699e-06 3.66151V18.5613C2.75699e-06 19.5685 0.716609 20.3283 1.66653 20.3283C5.36778 20.3283 9.08049 20.6742 11.3043 22.7761C11.3347 22.8049 11.3729 22.8243 11.4142 22.8316C11.4555 22.8389 11.4981 22.834 11.5366 22.8173C11.5751 22.8007 11.6079 22.7731 11.6308 22.738C11.6538 22.7029 11.6659 22.6618 11.6657 22.6198V5.06348C11.6658 4.94503 11.6404 4.82794 11.5914 4.72012C11.5423 4.61231 11.4707 4.51628 11.3813 4.43853C10.872 4.00306 10.3061 3.63834 9.69919 3.35424Z" fill="white"/>
<path d="M24.2646 2.27621C23.9889 2.09141 23.6633 1.99512 23.3314 2.00019C19.8103 2.01581 17.1803 2.4538 15.2987 3.35424C14.6918 3.63783 14.1258 4.00183 13.6161 4.43644C13.5269 4.51433 13.4554 4.6104 13.4065 4.71819C13.3575 4.82598 13.3322 4.943 13.3322 5.06139V22.6188C13.3322 22.6591 13.3441 22.6985 13.3664 22.7321C13.3887 22.7657 13.4204 22.7919 13.4575 22.8076C13.4947 22.8232 13.5356 22.8275 13.5752 22.82C13.6148 22.8124 13.6513 22.7933 13.6801 22.7651C15.017 21.4371 17.3631 20.3268 23.3335 20.3273C23.7755 20.3273 24.1993 20.1517 24.5119 19.8392C24.8244 19.5267 25 19.1028 25 18.6608V3.66203C25.0006 3.38842 24.9338 3.11887 24.8056 2.87718C24.6773 2.63549 24.4916 2.42909 24.2646 2.27621Z" fill="white"/>
</g>
</g>
</svg>
