<svg width="25" height="25" viewBox="0 0 25 25" fill="none" xmlns="http://www.w3.org/2000/svg">
<g id="Exit Icon" clip-path="url(#clip0_16_535)">
<path id="Vector" d="M17.2386 12.5005L24.3459 5.39327C25.218 4.52111 25.218 3.10705 24.3459 2.23418L22.7663 0.654638C21.8942 -0.217521 20.4801 -0.217521 19.6072 0.654638L12.5 7.76188L5.39276 0.654638C4.5206 -0.217521 3.10653 -0.217521 2.23366 0.654638L0.654119 2.23418C-0.21804 3.10634 -0.21804 4.5204 0.654119 5.39327L7.76136 12.5005L0.654119 19.6078C-0.21804 20.4799 -0.21804 21.894 0.654119 22.7669L2.23366 24.3464C3.10582 25.2186 4.5206 25.2186 5.39276 24.3464L12.5 17.2392L19.6072 24.3464C20.4794 25.2186 21.8942 25.2186 22.7663 24.3464L24.3459 22.7669C25.218 21.8947 25.218 20.4806 24.3459 19.6078L17.2386 12.5005Z" fill="white"/>
</g>
<defs>
<clipPath id="clip0_16_535">
<rect width="25" height="25" fill="white" transform="translate(0 0.000518799)"/>
</clipPath>
</defs>
</svg>
