<svg width="40" height="40" viewBox="0 0 40 40" fill="none" xmlns="http://www.w3.org/2000/svg">
<g id="Fire">
<path id="Subtract" d="M15.8334 16.6671C15.8334 15.3479 14.0787 14.9982 13.6132 16.2326C12.4872 19.2184 11.6667 21.8895 11.6667 23.3337C11.6667 27.936 15.3976 31.667 20 31.667C24.6024 31.667 28.3334 27.936 28.3334 23.3337C28.3334 21.7821 27.3863 18.8144 26.1308 15.5616C24.5043 11.3479 23.6911 9.24111 22.6872 9.12763C22.366 9.09132 22.0156 9.15661 21.729 9.30615C20.8334 9.7735 20.8334 12.0714 20.8334 16.6671C20.8334 18.0478 19.7141 19.1671 18.3334 19.1671C16.9526 19.1671 15.8334 18.0478 15.8334 16.6671Z" stroke="#6C9EBA" stroke-width="2"/>
</g>
</svg>
