<svg width="25" height="25" viewBox="0 0 25 25" fill="none" xmlns="http://www.w3.org/2000/svg">
<g id="Heart Icon" clip-path="url(#clip0_47_49)">
<path id="Vector" d="M22.4759 13.0953L22.4758 13.0954C21.4495 14.1592 20.4402 15.231 19.4337 16.2998C17.4227 18.4354 15.423 20.5588 13.322 22.5822C12.8949 22.9858 12.2167 22.9701 11.8091 22.5476L2.69031 13.0954C2.69031 13.0954 2.69031 13.0954 2.69031 13.0954C0.214352 10.5288 0.21436 6.37669 2.69031 3.81018C5.17874 1.23074 9.22342 1.23074 11.7118 3.81018L11.7119 3.81023L12.0434 4.1538C12.1847 4.30029 12.3796 4.38303 12.5831 4.38303C12.7867 4.38302 12.9815 4.30026 13.1229 4.15375L13.4541 3.81039L13.4542 3.81024C14.6499 2.57021 16.2736 1.875 17.965 1.875C19.6564 1.875 21.2799 2.57014 22.4757 3.81009L22.4759 3.81028C23.6643 5.0417 24.3333 6.71068 24.3333 8.45278C24.3333 10.1949 23.6642 11.864 22.4759 13.0953Z" stroke="#6C9EBA" stroke-width="1.5" stroke-linejoin="round"/>
</g>
<defs>
<clipPath id="clip0_47_49">
<rect width="25" height="25" fill="white"/>
</clipPath>
</defs>
</svg>
