<svg width="25" height="25" viewBox="0 0 25 25" fill="none" xmlns="http://www.w3.org/2000/svg">
<g clip-path="url(#clip0_54_373)">
<path d="M21.5357 10.9375H20.3036V7.42188C20.3036 3.33008 16.8022 0 12.5 0C8.19777 0 4.69643 3.33008 4.69643 7.42188V10.9375H3.46429C2.10379 10.9375 1 11.9873 1 13.2812V22.6562C1 23.9502 2.10379 25 3.46429 25H21.5357C22.8962 25 24 23.9502 24 22.6562V13.2812C24 11.9873 22.8962 10.9375 21.5357 10.9375ZM16.1964 10.9375H8.80357V7.42188C8.80357 5.4834 10.4618 3.90625 12.5 3.90625C14.5382 3.90625 16.1964 5.4834 16.1964 7.42188V10.9375Z" fill="white"/>
</g>
<defs>
<clipPath id="clip0_54_373">
<rect width="25" height="25" fill="white" transform="translate(0 0.000518799)"/>
</clipPath>
</defs>
</svg>
