<svg width="25" height="25" viewBox="0 0 25 25" fill="none" xmlns="http://www.w3.org/2000/svg">
<g id="Logout Icon">
<path id="Vector" d="M24.654 13.4926L16.3203 21.8263C15.5762 22.5704 14.2864 22.0496 14.2864 20.983V16.2209H7.54006C6.8803 16.2209 6.34952 15.6901 6.34952 15.0304V10.2682C6.34952 9.60847 6.8803 9.07769 7.54006 9.07769H14.2864V4.31555C14.2864 3.25399 15.5712 2.72817 16.3203 3.47226L24.654 11.806C25.1153 12.2723 25.1153 13.0263 24.654 13.4926ZM9.52428 21.5783V19.5941C9.52428 19.2667 9.25641 18.9988 8.92901 18.9988H4.76214C3.88412 18.9988 3.17476 18.2895 3.17476 17.4114V7.88716C3.17476 7.00914 3.88412 6.29978 4.76214 6.29978H8.92901C9.25641 6.29978 9.52428 6.03191 9.52428 5.70451V3.72029C9.52428 3.39289 9.25641 3.12502 8.92901 3.12502H4.76214C2.13304 3.12502 0 5.25806 0 7.88716V17.4114C0 20.0405 2.13304 22.1736 4.76214 22.1736H8.92901C9.25641 22.1736 9.52428 21.9057 9.52428 21.5783Z" fill="white"/>
</g>
</svg>
