<?xml version="1.0" encoding="iso-8859-1"?>
<!-- Generator: Adobe Illustrator 21.0.2, SVG Export Plug-In . SVG Version: 6.00 Build 0)  -->
<svg xmlns="http://www.w3.org/2000/svg" xmlns:xlink="http://www.w3.org/1999/xlink" version="1.1" id="Layer_1" x="0px" y="0px" viewBox="0 0 40 40" style="enable-background:new 0 0 40 40;" xml:space="preserve">
<g>
	<path style="fill:#FFFFFF;" d="M20,38.5C9.799,38.5,1.5,30.201,1.5,20S9.799,1.5,20,1.5S38.5,9.799,38.5,20S30.201,38.5,20,38.5z"/>
	<path style="fill:rgba(108, 158, 186);" d="M20,2c9.925,0,18,8.075,18,18s-8.075,18-18,18S2,29.925,2,20S10.075,2,20,2 M20,1   C9.507,1,1,9.507,1,20s8.507,19,19,19s19-8.507,19-19S30.493,1,20,1L20,1z"/>
</g>
<g>
	<circle style="fill:rgba(108, 158, 186, 0.5)" cx="20" cy="20" r="13"/>
</g>
<g>
	<g>
		<path style="fill:#DFF0FE;" d="M24.5,32.5c-0.555,0-1.07-0.222-1.451-0.624c-0.382-0.401-0.575-0.928-0.546-1.48L22.5,7.519    c3.352,0.257,6,3.065,6,6.481v7.5c0,0.552-0.448,1-1,1h-1.515l0.512,7.901c0.029,0.547-0.164,1.073-0.546,1.475    C25.57,32.278,25.055,32.5,24.5,32.5z"/>
	</g>
	<g>
		<path style="fill:rgba(108, 158, 186);" d="M23,8.083c2.834,0.477,5,2.949,5,5.917v7.5c0,0.276-0.224,0.5-0.5,0.5h-0.982h-1.067l0.069,1.065    l0.477,7.356c0.022,0.415-0.124,0.81-0.41,1.111C25.302,31.834,24.916,32,24.5,32s-0.802-0.166-1.088-0.468    c-0.286-0.302-0.432-0.696-0.41-1.111l0.001-0.026v-0.026L23.002,23L23,22.151V8.083 M22,7v16h0.002l0.002,7.369    C21.928,31.799,23.068,33,24.5,33s2.572-1.201,2.496-2.631L26.518,23H27.5c0.828,0,1.5-0.672,1.5-1.5V14C29,10.134,25.866,7,22,7    L22,7z"/>
	</g>
</g>
<g>
	<g>
		<path style="fill:#DFF0FE;" d="M14.5,32.5c-0.56,0-1.078-0.226-1.461-0.634c-0.382-0.408-0.571-0.94-0.534-1.499l0.707-12.981    l-0.299-0.146C12.042,16.815,11.5,15.957,11.5,15v-2.5h6V15c0,0.957-0.542,1.815-1.413,2.24l-0.299,0.146l0.707,12.976    c0.037,0.564-0.152,1.097-0.534,1.505C15.578,32.274,15.06,32.5,14.5,32.5z"/>
	</g>
	<g>
		<path style="fill:rgba(108, 158, 186)" d="M17,13v2c0,0.764-0.434,1.45-1.132,1.79l-0.597,0.291l0.036,0.663L15.997,30.4    c0.028,0.419-0.115,0.818-0.401,1.124C15.309,31.831,14.92,32,14.5,32s-0.809-0.169-1.095-0.475    c-0.287-0.306-0.429-0.706-0.401-1.137l0.688-12.645l0.036-0.663l-0.597-0.291C12.434,16.45,12,15.764,12,15v-2H17 M18,12h-7v3    c0,1.186,0.695,2.202,1.694,2.689l-0.688,12.645C11.909,31.777,13.054,33,14.5,33s2.591-1.223,2.494-2.666l-0.688-12.645    C17.305,17.202,18,16.186,18,15V12L18,12z"/>
	</g>
</g>
<g>
	<line style="fill:none;stroke:rgba(108, 158, 186);stroke-linecap:round;stroke-miterlimit:10;" x1="17.5" y1="7.5" x2="17.5" y2="13.5"/>
</g>
<g>
	<line style="fill:none;stroke:rgba(108, 158, 186);stroke-linecap:round;stroke-miterlimit:10;" x1="15.5" y1="7.5" x2="15.5" y2="12.5"/>
</g>
<g>
	<line style="fill:none;stroke:rgba(108, 158, 186);stroke-linecap:round;stroke-miterlimit:10;" x1="13.5" y1="7.5" x2="13.5" y2="12.5"/>
</g>
<g>
	<line style="fill:none;stroke:rgba(108, 158, 186);stroke-linecap:round;stroke-miterlimit:10;" x1="11.5" y1="7.5" x2="11.5" y2="13.5"/>
</g>
</svg>
