<svg width="25" height="25" viewBox="0 0 25 25" fill="none" xmlns="http://www.w3.org/2000/svg">
<g id="Message Icon" clip-path="url(#clip0_47_47)">
<path id="Vector" d="M15.2785 21.2303L15.2756 21.2341L13.4006 23.7266C13.1094 24.1138 12.776 24.25 12.5 24.25C12.224 24.25 11.8906 24.1138 11.5994 23.7266L9.72707 21.2377C9.53383 20.9752 9.25888 20.7841 9.00887 20.6605C8.75598 20.5355 8.44111 20.4364 8.125 20.4364H7.5C5.013 20.4364 3.39314 20.1135 2.36804 19.2192C1.36843 18.3472 0.75 16.7593 0.75 13.7089V7.47757C0.75 5.10122 1.34529 3.4566 2.40454 2.40052C3.4642 1.34402 5.11504 0.75 7.5 0.75H17.5C19.885 0.75 21.5358 1.34402 22.5955 2.40052C23.6547 3.4566 24.25 5.10122 24.25 7.47757V13.7089C24.25 16.0852 23.6547 17.7298 22.5955 18.7859C21.5358 19.8424 19.885 20.4364 17.5 20.4364H16.875C16.2505 20.4364 15.6561 20.735 15.2785 21.2303ZM17.4956 10.4664C17.0814 10.4664 16.7456 10.8021 16.7456 11.2164C16.7456 11.6306 17.0814 11.9664 17.4956 11.9664H17.5068C17.921 11.9664 18.2568 11.6306 18.2568 11.2164C18.2568 10.8021 17.921 10.4664 17.5068 10.4664H17.4956ZM12.4944 10.4664C12.0802 10.4664 11.7444 10.8021 11.7444 11.2164C11.7444 11.6306 12.0802 11.9664 12.4944 11.9664H12.5056C12.9198 11.9664 13.2556 11.6306 13.2556 11.2164C13.2556 10.8021 12.9198 10.4664 12.5056 10.4664H12.4944ZM7.49314 10.4664C7.07892 10.4664 6.74314 10.8021 6.74314 11.2164C6.74314 11.6306 7.07892 11.9664 7.49314 11.9664H7.50436C7.91858 11.9664 8.25436 11.6306 8.25436 11.2164C8.25436 10.8021 7.91858 10.4664 7.50436 10.4664H7.49314Z" stroke="#6C9EBA" stroke-width="1.5" stroke-linecap="round" stroke-linejoin="round"/>
</g>
<defs>
<clipPath id="clip0_47_47">
<rect width="25" height="25" fill="white"/>
</clipPath>
</defs>
</svg>
