<svg width="26" height="25" viewBox="0 0 26 25" fill="none" xmlns="http://www.w3.org/2000/svg">
<g id="Pantry Icon">
<path id="Vector" d="M14.6089 7.64722C12.0354 6.39222 9.0175 7.13448 7.27416 9.24894L9.96974 11.9445C10.2774 12.2522 10.2774 12.7454 9.96974 13.0481C9.81835 13.1995 9.61814 13.2776 9.41793 13.2776C9.21771 13.2776 9.0175 13.1995 8.86612 13.0481L6.41471 10.5967L0.159221 23.4251C0.0176056 23.7181 0.00783901 24.0746 0.159221 24.3871C0.422918 24.9292 1.08216 25.1538 1.62421 24.8901L8.14827 21.7062L5.7457 19.3036C5.43805 19.0009 5.43805 18.5028 5.7457 18.2C6.05334 17.8972 6.54656 17.8972 6.84932 18.2L9.63279 20.9835L14.6137 18.5516C15.7857 17.9802 16.7868 17.0231 17.4021 15.7632C18.872 12.7503 17.6218 9.11709 14.6089 7.64722ZM19.1064 5.94296C20.0586 3.95546 19.5654 1.6066 17.6267 0C15.1704 2.03633 15.063 5.24953 17.2409 7.41771L17.6316 7.80837C19.7998 9.98631 23.0179 9.87888 25.0493 7.42259C23.4427 5.48393 21.0939 4.99072 19.1064 5.94296Z" fill="white"/>
</g>
</svg>
