<svg width="25" height="25" viewBox="0 0 25 25" fill="none" xmlns="http://www.w3.org/2000/svg">
<g id="Personal Chef Icon" clip-path="url(#clip0_5_140)">
<path id="Vector" d="M23.3887 10.8887C23.1445 11.1491 22.8923 11.4258 22.6318 11.7188C22.3714 12.0117 22.0418 12.4023 21.6431 12.8906C21.2443 13.3789 20.9229 13.8672 20.6787 14.3555C20.4346 14.8438 20.3125 15.2669 20.3125 15.625C20.3125 16.0645 19.5516 16.4347 18.0298 16.7358C16.508 17.0369 14.6647 17.1875 12.5 17.1875C10.3353 17.1875 8.49202 17.0369 6.97021 16.7358C5.4484 16.4347 4.6875 16.0645 4.6875 15.625C4.6875 15.153 4.46777 14.563 4.02832 13.855C3.58887 13.147 3.1779 12.5773 2.79541 12.146C2.41292 11.7147 2.03451 11.3118 1.66016 10.9375C0.553385 9.86328 0 8.5612 0 7.03125C0 5.51758 0.53304 4.2277 1.59912 3.16162C2.6652 2.09554 3.95508 1.5625 5.46875 1.5625C5.8431 1.5625 6.23372 1.60319 6.64062 1.68457C6.38021 2.35189 6.25 3.09245 6.25 3.90625C6.25 5.64779 6.78711 7.09635 7.86133 8.25195C7.82878 7.37305 7.8125 6.44531 7.8125 5.46875C7.8125 3.95508 8.26823 2.6652 9.17969 1.59912C10.0911 0.53304 11.1979 0 12.5 0C13.8021 0 14.9089 0.53304 15.8203 1.59912C16.7318 2.6652 17.1875 3.95508 17.1875 5.46875C17.1875 6.46159 17.1712 7.38932 17.1387 8.25195C18.2129 7.09635 18.75 5.64779 18.75 3.90625C18.75 3.09245 18.6198 2.35189 18.3594 1.68457C18.7663 1.60319 19.1569 1.5625 19.5312 1.5625C21.0449 1.5625 22.3348 2.09554 23.4009 3.16162C24.467 4.2277 25 5.51758 25 7.03125C25 8.54492 24.4629 9.83073 23.3887 10.8887ZM12.4878 18.75C14.6444 18.75 16.4876 18.5954 18.0176 18.2861C19.5475 17.9769 20.3125 17.6107 20.3125 17.1875V23.4375C20.3125 23.8607 19.5475 24.2269 18.0176 24.5361C16.4876 24.8454 14.6444 25 12.4878 25C10.3312 25 8.49202 24.8454 6.97021 24.5361C5.4484 24.2269 4.6875 23.8607 4.6875 23.4375V17.1875C4.6875 17.627 5.4484 17.9972 6.97021 18.2983C8.49202 18.5994 10.3312 18.75 12.4878 18.75Z" fill="white"/>
</g>
<defs>
<clipPath id="clip0_5_140">
<rect width="25" height="25" fill="white"/>
</clipPath>
</defs>
</svg>
