<svg width="25" height="25" viewBox="0 0 25 25" fill="none" xmlns="http://www.w3.org/2000/svg">
<g clip-path="url(#clip0_54_370)">
<path d="M12.7222 11.1116C13.821 11.1116 14.8951 10.7858 15.8087 10.1754C16.7223 9.5649 17.4344 8.69724 17.8549 7.6821C18.2754 6.66695 18.3854 5.54991 18.171 4.47224C17.9567 3.39457 17.4276 2.40466 16.6506 1.62771C15.8736 0.850747 14.8837 0.321632 13.8061 0.10727C12.7284 -0.107093 11.6113 0.00292593 10.5962 0.423413C9.58106 0.843899 8.7134 1.55597 8.10295 2.46957C7.49249 3.38318 7.16667 4.45729 7.16667 5.55608C7.16667 7.0295 7.75198 8.44258 8.79385 9.48445C9.83572 10.5263 11.2488 11.1116 12.7222 11.1116Z" fill="white"/>
<path d="M21.0556 25.0005C21.4239 25.0005 21.7772 24.8542 22.0376 24.5937C22.2981 24.3333 22.4444 23.98 22.4444 23.6116C22.4444 21.0331 21.4201 18.5602 19.5969 16.737C17.7736 14.9137 15.3007 13.8894 12.7222 13.8894C10.1437 13.8894 7.67084 14.9137 5.84757 16.737C4.0243 18.5602 3 21.0331 3 23.6116C3 23.98 3.14633 24.3333 3.4068 24.5937C3.66726 24.8542 4.02053 25.0005 4.38889 25.0005H21.0556Z" fill="white"/>
</g>
<defs>
<clipPath id="clip0_54_370">
<rect width="25" height="25" fill="white" transform="translate(0 0.000518799)"/>
</clipPath>
</defs>
</svg>
