<svg width="25" height="25" viewBox="0 0 25 25" fill="none" xmlns="http://www.w3.org/2000/svg">
<g id="Search Icon">
<path id="Vector" d="M25 23.6924L18.0165 16.7088C19.6946 14.6942 20.5314 12.1102 20.3528 9.49432C20.1742 6.87845 18.994 4.43213 17.0577 2.66425C15.1214 0.896377 12.578 -0.056934 9.95676 0.00263234C7.33548 0.0621987 4.83807 1.13006 2.98406 2.98406C1.13006 4.83807 0.0621987 7.33548 0.00263234 9.95676C-0.056934 12.578 0.896377 15.1214 2.66425 17.0577C4.43213 18.994 6.87845 20.1742 9.49432 20.3528C12.1102 20.5314 14.6942 19.6946 16.7088 18.0165L23.6924 25L25 23.6924ZM1.88216 10.2046C1.88216 8.55856 2.37026 6.9495 3.28474 5.58089C4.19922 4.21227 5.499 3.14557 7.01973 2.51566C8.54045 1.88576 10.2138 1.72095 11.8282 2.04207C13.4426 2.36319 14.9255 3.15583 16.0894 4.31974C17.2533 5.48365 18.046 6.96656 18.3671 8.58096C18.6882 10.1953 18.5234 11.8687 17.8935 13.3894C17.2636 14.9102 16.1969 16.2099 14.8283 17.1244C13.4597 18.0389 11.8506 18.527 10.2046 18.527C7.99809 18.5246 5.88267 17.6469 4.32244 16.0867C2.76221 14.5265 1.8846 12.4111 1.88216 10.2046Z" fill="white"/>
</g>
</svg>
