<svg width="25" height="25" viewBox="0 0 25 25" fill="none" xmlns="http://www.w3.org/2000/svg">
<g clip-path="url(#clip0_54_362)">
<path d="M12.5 0.000518799C9.18479 0.000518799 6.00537 1.31748 3.66116 3.66168C1.31696 6.00589 0 9.18531 0 12.5005C0 15.8157 1.31696 18.9951 3.66116 21.3394C6.00537 23.6836 9.18479 25.0005 12.5 25.0005C12.8014 25.0005 13.0904 24.8808 13.3035 24.6677C13.5166 24.4546 13.6364 24.1655 13.6364 23.8642C13.6364 23.5628 13.5166 23.2737 13.3035 23.0606C13.0904 22.8475 12.8014 22.7278 12.5 22.7278C10.4772 22.7278 8.4999 22.128 6.81803 21.0042C5.13616 19.8804 3.82531 18.2831 3.05123 16.4143C2.27715 14.5455 2.07462 12.4892 2.46924 10.5053C2.86386 8.52138 3.83791 6.69905 5.26822 5.26874C6.69853 3.83843 8.52086 2.86438 10.5048 2.46976C12.4887 2.07514 14.545 2.27767 16.4138 3.05175C18.2826 3.82583 19.8799 5.13668 21.0037 6.81855C22.1274 8.50042 22.7273 10.4778 22.7273 12.5005V15.7471C22.7273 16.3068 22.5049 16.8435 22.1092 17.2393C21.7134 17.635 21.1767 17.8573 20.617 17.8573C20.0574 17.8573 19.5206 17.635 19.1249 17.2393C18.7291 16.8435 18.5068 16.3068 18.5068 15.7471V7.63006C18.5068 7.32868 18.3871 7.03964 18.174 6.82653C17.9609 6.61342 17.6718 6.4937 17.3704 6.4937C17.0691 6.4937 16.78 6.61342 16.5669 6.82653C16.3538 7.03964 16.2341 7.32868 16.2341 7.63006V7.83347C15.1794 6.9727 13.8613 6.49979 12.5 6.4937C11.5259 6.4868 10.5648 6.7169 9.69944 7.16415C8.83409 7.61141 8.09049 8.2624 7.53275 9.06102C6.97501 9.85963 6.61985 10.7819 6.4979 11.7483C6.37595 12.7148 6.49086 13.6964 6.83272 14.6085C7.17459 15.5206 7.73315 16.336 8.46027 16.9842C9.18738 17.6324 10.0612 18.094 11.0065 18.3293C11.9517 18.5646 12.94 18.5665 13.8862 18.3348C14.8323 18.1031 15.7079 17.6448 16.4375 16.9994C16.7366 18.0072 17.3889 18.8735 18.2747 19.4395C19.1606 20.0055 20.2208 20.2333 21.261 20.0812C22.3012 19.929 23.2518 19.4072 23.9385 18.6112C24.6252 17.8152 25.002 16.7984 25 15.7471V12.5005C24.9961 9.18651 23.6779 6.00936 21.3345 3.666C18.9912 1.32264 15.814 0.00442842 12.5 0.000518799ZM12.5 16.2346C11.7615 16.2346 11.0395 16.0156 10.4254 15.6053C9.81138 15.195 9.33277 14.6118 9.05015 13.9295C8.76752 13.2472 8.69358 12.4964 8.83766 11.772C8.98174 11.0477 9.33737 10.3823 9.8596 9.86012C10.3818 9.3379 11.0472 8.98226 11.7715 8.83818C12.4959 8.6941 13.2467 8.76804 13.929 9.05067C14.6113 9.33329 15.1945 9.8119 15.6048 10.426C16.0151 11.04 16.2341 11.762 16.2341 12.5005C16.2329 13.4905 15.8391 14.4396 15.1391 15.1396C14.4391 15.8396 13.49 16.2334 12.5 16.2346Z" fill="#959595"/>
</g>
<defs>
<clipPath id="clip0_54_362">
<rect width="25" height="25" fill="white" transform="translate(0 0.000518799)"/>
</clipPath>
</defs>
</svg>
