<svg width="39" height="37" viewBox="0 0 39 37" fill="none" xmlns="http://www.w3.org/2000/svg">
<path fill-rule="evenodd" clip-rule="evenodd" d="M19.4748 6.66168C12.572 6.66168 6.97624 12.0422 6.97624 18.6795C6.97624 21.8328 8.23868 24.7032 10.3071 26.8482C10.3852 26.5998 10.489 26.3557 10.6245 26.1228C11.0838 25.3332 11.6632 24.603 12.3507 23.9574C13.0407 23.3094 13.8191 22.7656 14.6587 22.336C13.38 21.1591 12.5805 19.5142 12.5805 17.678C12.5805 14.0496 15.7021 11.1684 19.4748 11.1684C23.2474 11.1684 26.369 14.0496 26.369 17.678C26.369 19.5142 25.5695 21.1591 24.2908 22.336C25.1304 22.7656 25.9088 23.3094 26.5988 23.9574C27.2863 24.603 27.8657 25.3332 28.325 26.1228C28.4605 26.3557 28.5643 26.5998 28.6424 26.8482C30.7108 24.7032 31.9733 21.8328 31.9733 18.6795C31.9733 12.0422 26.3775 6.66168 19.4748 6.66168ZM25.632 29.1405C25.6927 28.8404 25.7231 28.5588 25.724 28.3092C25.7255 27.8968 25.6469 27.6737 25.5979 27.5894C25.2846 27.0507 24.8882 26.5506 24.4155 26.1067C23.1113 24.8819 21.3347 24.1876 19.4748 24.1876C17.6148 24.1876 15.8382 24.8819 14.534 26.1067C14.0613 26.5506 13.6649 27.0507 13.3516 27.5894C13.3026 27.6737 13.224 27.8968 13.2255 28.3092C13.2264 28.5588 13.2568 28.8404 13.3175 29.1405C15.1339 30.1314 17.2336 30.6973 19.4748 30.6973C21.7159 30.6973 23.8156 30.1314 25.632 29.1405ZM19.4748 21.1832C21.5916 21.1832 23.2444 19.5807 23.2444 17.678C23.2444 15.7753 21.5916 14.1728 19.4748 14.1728C17.3579 14.1728 15.7051 15.7753 15.7051 17.678C15.7051 19.5807 17.3579 21.1832 19.4748 21.1832ZM3.85161 18.6795C3.85161 10.3829 10.8463 3.65723 19.4748 3.65723C28.1032 3.65723 35.0979 10.3829 35.0979 18.6795C35.0979 24.0233 32.1949 28.7141 27.83 31.375C25.4127 32.8487 22.5449 33.7017 19.4748 33.7017C16.4046 33.7017 13.5368 32.8487 11.1195 31.375C6.7546 28.7141 3.85161 24.0233 3.85161 18.6795Z" fill="white"/>
</svg>
