<svg width="39" height="37" viewBox="0 0 39 37" fill="none" xmlns="http://www.w3.org/2000/svg">
<g id="user-circle">
<path id="union-1" fill-rule="evenodd" clip-rule="evenodd" d="M19.4748 6.66168C12.5721 6.66168 6.97631 12.0422 6.97631 18.6795C6.97631 21.8328 8.23876 24.7032 10.3072 26.8482C10.3852 26.5998 10.4891 26.3557 10.6246 26.1228C11.0839 25.3332 11.6633 24.603 12.3508 23.9574C13.0408 23.3094 13.8192 22.7656 14.6587 22.336C13.38 21.1591 12.5806 19.5142 12.5806 17.678C12.5806 14.0496 15.7022 11.1684 19.4748 11.1684C23.2475 11.1684 26.3691 14.0496 26.3691 17.678C26.3691 19.5142 25.5696 21.1591 24.2909 22.336C25.1305 22.7656 25.9089 23.3094 26.5988 23.9574C27.2863 24.603 27.8657 25.3332 28.3251 26.1228C28.4605 26.3557 28.5644 26.5998 28.6425 26.8482C30.7109 24.7032 31.9733 21.8328 31.9733 18.6795C31.9733 12.0422 26.3776 6.66168 19.4748 6.66168ZM25.6321 29.1405C25.6928 28.8404 25.7232 28.5588 25.7241 28.3092C25.7256 27.8968 25.647 27.6737 25.598 27.5894C25.2847 27.0507 24.8883 26.5506 24.4156 26.1067C23.1114 24.8819 21.3348 24.1876 19.4748 24.1876C17.6149 24.1876 15.8383 24.8819 14.5341 26.1067C14.0614 26.5506 13.665 27.0507 13.3517 27.5894C13.3027 27.6737 13.2241 27.8968 13.2256 28.3092C13.2265 28.5588 13.2569 28.8404 13.3176 29.1405C15.134 30.1314 17.2337 30.6973 19.4748 30.6973C21.716 30.6973 23.8157 30.1314 25.6321 29.1405ZM19.4748 21.1832C21.5917 21.1832 23.2444 19.5807 23.2444 17.678C23.2444 15.7753 21.5917 14.1728 19.4748 14.1728C17.358 14.1728 15.7052 15.7753 15.7052 17.678C15.7052 19.5807 17.358 21.1832 19.4748 21.1832ZM3.85168 18.6795C3.85168 10.3829 10.8464 3.65723 19.4748 3.65723C28.1033 3.65723 35.098 10.3829 35.098 18.6795C35.098 24.0233 32.195 28.7141 27.8301 31.375C25.4127 32.8487 22.545 33.7017 19.4748 33.7017C16.4047 33.7017 13.5369 32.8487 11.1196 31.375C6.75468 28.7141 3.85168 24.0233 3.85168 18.6795Z" fill="white"/>
</g>
</svg>
