<svg width="55" height="55" viewBox="0 0 55 55" fill="none" xmlns="http://www.w3.org/2000/svg">
<rect width="55" height="55" fill="#1E1E1E"/>
<rect id="Board" x="-2440" y="-380" width="4320" height="2299" fill="#D9D9D9"/>
<g id="Base Window">
<rect width="1977" height="1080" transform="translate(-1701 -67)" fill="#26282F"/>
<g id="Main Contents">
<g clip-path="url(#clip0_60_359)">
<rect x="-1314" y="-27" width="1550" height="1000" rx="25" fill="white"/>
<g id="Ellipse 1" opacity="0.2" filter="url(#filter0_d_60_359)">
<ellipse cx="260.951" cy="608" rx="901.815" ry="1008.55" transform="rotate(-56.4443 260.951 608)" fill="#6C9EBA"/>
</g>
<g id="user-circle">
<path id="union-1" fill-rule="evenodd" clip-rule="evenodd" d="M27.5 9.16671C17.3748 9.16671 9.16665 17.3748 9.16665 27.5C9.16665 32.3105 11.0185 36.6893 14.0525 39.9615C14.167 39.5825 14.3194 39.2103 14.5181 38.8549C15.1918 37.6503 16.0417 36.5365 17.0502 35.5515C18.0622 34.5631 19.204 33.7335 20.4356 33.0781C18.5599 31.2827 17.3872 28.7734 17.3872 25.9723C17.3872 20.4371 21.9661 16.0417 27.5 16.0417C33.0339 16.0417 37.6127 20.4371 37.6127 25.9723C37.6127 28.7734 36.4401 31.2827 34.5644 33.0781C35.7959 33.7335 36.9377 34.5631 37.9498 35.5515C38.9582 36.5365 39.8081 37.6503 40.4819 38.8549C40.6806 39.2103 40.8329 39.5825 40.9475 39.9615C43.9815 36.6893 45.8333 32.3105 45.8333 27.5C45.8333 17.3748 37.6252 9.16671 27.5 9.16671ZM36.5317 43.4585C36.6207 43.0007 36.6653 42.571 36.6666 42.1903C36.6688 41.5613 36.5536 41.2208 36.4817 41.0923C36.0221 40.2705 35.4406 39.5076 34.7473 38.8304C32.8342 36.9619 30.2282 35.9028 27.5 35.9028C24.7717 35.9028 22.1658 36.9619 20.2527 38.8304C19.5593 39.5076 18.9779 40.2705 18.5183 41.0923C18.4464 41.2208 18.3311 41.5613 18.3333 42.1903C18.3347 42.571 18.3793 43.0007 18.4682 43.4585C21.1326 44.9701 24.2126 45.8334 27.5 45.8334C30.7874 45.8334 33.8674 44.9701 36.5317 43.4585ZM27.5 31.3195C30.605 31.3195 33.0294 28.8748 33.0294 25.9723C33.0294 23.0697 30.605 20.625 27.5 20.625C24.3949 20.625 21.9706 23.0697 21.9706 25.9723C21.9706 28.8748 24.3949 31.3195 27.5 31.3195ZM4.58331 27.5C4.58331 14.8435 14.8435 4.58337 27.5 4.58337C40.1565 4.58337 50.4166 14.8435 50.4166 27.5C50.4166 35.6521 46.1584 42.808 39.7558 46.8673C36.2099 49.1153 32.0034 50.4167 27.5 50.4167C22.9965 50.4167 18.79 49.1153 15.2442 46.8673C8.84154 42.808 4.58331 35.6521 4.58331 27.5Z" fill="#6C9EBA"/>
</g>
</g>
</g>
</g>
<defs>
<filter id="filter0_d_60_359" x="-746.38" y="-347.777" width="1994.66" height="1911.55" filterUnits="userSpaceOnUse" color-interpolation-filters="sRGB">
<feFlood flood-opacity="0" result="BackgroundImageFix"/>
<feColorMatrix in="SourceAlpha" type="matrix" values="0 0 0 0 0 0 0 0 0 0 0 0 0 0 0 0 0 0 127 0" result="hardAlpha"/>
<feOffset dx="-10"/>
<feGaussianBlur stdDeviation="10"/>
<feComposite in2="hardAlpha" operator="out"/>
<feColorMatrix type="matrix" values="0 0 0 0 0 0 0 0 0 0 0 0 0 0 0 0 0 0 0.25 0"/>
<feBlend mode="normal" in2="BackgroundImageFix" result="effect1_dropShadow_60_359"/>
<feBlend mode="normal" in="SourceGraphic" in2="effect1_dropShadow_60_359" result="shape"/>
</filter>
<clipPath id="clip0_60_359">
<rect x="-1314" y="-27" width="1550" height="1000" rx="25" fill="white"/>
</clipPath>
</defs>
</svg>
