<svg width="302" height="76" viewBox="0 0 302 76" fill="none" xmlns="http://www.w3.org/2000/svg">
<rect width="302" height="76" rx="25" fill="#6C9EBA"/>
<path d="M51.136 45.9962V58.5847C50.6667 58.7158 49.92 58.847 48.896 58.9781C47.9147 59.1092 46.9333 59.1748 45.952 59.1748C44.9707 59.1748 44.096 59.0874 43.328 58.9125C42.6027 58.7814 41.984 58.5191 41.472 58.1258C41.0027 57.7324 40.64 57.186 40.384 56.4866C40.128 55.7873 40 54.8694 40 53.7329V22.8518C40 21.9339 40.2347 21.2345 40.704 20.7537C41.216 20.2292 41.8987 19.814 42.752 19.508C44.2027 18.9835 45.888 18.6119 47.808 18.3934C49.728 18.1311 51.776 18 53.952 18C59.84 18 64.2773 19.2676 67.264 21.8028C70.2507 24.3379 71.744 27.7692 71.744 32.0965C71.744 34.8065 71.0613 37.1231 69.696 39.0463C68.3307 40.9696 66.7093 42.4557 64.832 43.5048C66.368 45.6466 67.8827 47.6572 69.376 49.5367C70.8693 51.4163 72.0427 53.121 72.896 54.6508C72.4693 56.1807 71.68 57.3608 70.528 58.1913C69.4187 58.9781 68.16 59.3715 66.752 59.3715C65.8133 59.3715 65.0027 59.2622 64.32 59.0437C63.6373 58.8251 63.04 58.5191 62.528 58.1258C62.016 57.7324 61.5467 57.2516 61.12 56.6833C60.6933 56.1151 60.288 55.5032 59.904 54.8475L54.528 45.9962H51.136ZM55.168 37.2761C56.7893 37.2761 58.0693 36.8609 59.008 36.0304C59.9467 35.1562 60.416 33.8886 60.416 32.2276C60.416 30.5666 59.8827 29.3209 58.816 28.4904C57.792 27.6162 56.1493 27.1791 53.888 27.1791C53.248 27.1791 52.736 27.2009 52.352 27.2447C51.968 27.2884 51.5413 27.3539 51.072 27.4414V37.2761H55.168Z" fill="white"/>
<path d="M93.6785 59.896C91.1612 59.896 88.8145 59.5463 86.6385 58.847C84.5052 58.1039 82.6278 57.0111 81.0065 55.5687C79.4278 54.1263 78.1692 52.3123 77.2305 50.1268C76.3345 47.9413 75.8865 45.3843 75.8865 42.4557C75.8865 39.5709 76.3345 37.1013 77.2305 35.0469C78.1692 32.9488 79.3852 31.2441 80.8785 29.9328C82.3718 28.5778 84.0785 27.5943 85.9985 26.9824C87.9185 26.3267 89.8812 25.9989 91.8865 25.9989C94.1478 25.9989 96.1958 26.3486 98.0305 27.048C99.9078 27.7473 101.508 28.7089 102.831 29.9328C104.196 31.1567 105.241 32.621 105.966 34.3257C106.734 36.0304 107.118 37.888 107.118 39.8987C107.118 41.3848 106.713 42.5213 105.902 43.3081C105.092 44.0949 103.961 44.5975 102.511 44.8161L86.7025 47.242C87.1718 48.6844 88.1318 49.7771 89.5825 50.5202C91.0332 51.2196 92.6972 51.5693 94.5745 51.5693C96.3238 51.5693 97.9665 51.3507 99.5025 50.9136C101.081 50.4328 102.361 49.8864 103.342 49.2745C104.025 49.7116 104.601 50.3235 105.071 51.1103C105.54 51.8971 105.774 52.7276 105.774 53.6018C105.774 55.5687 104.879 57.033 103.087 57.9946C101.721 58.7377 100.185 59.2404 98.4785 59.5026C96.7718 59.7649 95.1718 59.896 93.6785 59.896ZM91.8865 34.129C90.8625 34.129 89.9665 34.3038 89.1985 34.6535C88.4732 35.0032 87.8758 35.4621 87.4065 36.0304C86.9372 36.5549 86.5745 37.1668 86.3185 37.8662C86.1052 38.5218 85.9772 39.1993 85.9345 39.8987L96.8785 38.0629C96.7505 37.1887 96.2812 36.3145 95.4705 35.4403C94.6598 34.5661 93.4652 34.129 91.8865 34.129Z" fill="white"/>
<path d="M129.892 34.7846C128.825 34.7846 127.801 34.9595 126.82 35.3091C125.881 35.6588 125.049 36.1833 124.324 36.8827C123.641 37.5384 123.086 38.3688 122.66 39.3742C122.233 40.3795 122.02 41.5597 122.02 42.9147C122.02 45.6247 122.766 47.6572 124.259 49.0122C125.796 50.3672 127.651 51.0447 129.827 51.0447C131.107 51.0447 132.217 50.8918 133.156 50.5858C134.094 50.2798 134.926 49.952 135.651 49.6023C136.505 50.2142 137.145 50.8918 137.572 51.6348C137.998 52.3342 138.212 53.1865 138.212 54.1919C138.212 55.984 137.38 57.3827 135.715 58.388C134.051 59.3496 131.747 59.8304 128.803 59.8304C126.115 59.8304 123.684 59.437 121.507 58.6503C119.331 57.8198 117.454 56.6833 115.876 55.2409C114.34 53.7548 113.145 51.9845 112.291 49.9301C111.438 47.8758 111.011 45.6028 111.011 43.1114C111.011 40.2265 111.459 37.7132 112.355 35.5714C113.294 33.3859 114.553 31.5938 116.132 30.1951C117.71 28.7964 119.523 27.7473 121.572 27.048C123.662 26.3486 125.859 25.9989 128.163 25.9989C131.235 25.9989 133.604 26.5672 135.268 27.7036C136.932 28.8401 137.764 30.3044 137.764 32.0965C137.764 32.927 137.572 33.7137 137.188 34.4568C136.803 35.1562 136.355 35.7681 135.843 36.2926C135.118 35.9429 134.243 35.6151 133.219 35.3091C132.195 34.9595 131.086 34.7846 129.892 34.7846Z" fill="white"/>
<path d="M172.483 25.9307C175.043 25.9307 177.411 26.2784 179.587 26.9738C181.806 27.6257 183.705 28.647 185.283 30.0378C186.862 31.4286 188.099 33.1887 188.995 35.3183C189.891 37.4045 190.339 39.9035 190.339 42.8154C190.339 45.5969 189.955 48.0308 189.187 50.1169C188.419 52.203 187.331 53.9632 185.923 55.3974C184.515 56.7882 182.809 57.8313 180.803 58.5267C178.841 59.222 176.643 59.5697 174.211 59.5697C172.377 59.5697 170.67 59.2872 169.091 58.7222V69.5441C168.665 69.6745 167.982 69.8049 167.043 69.9352C166.105 70.1091 165.145 70.196 164.163 70.196C163.225 70.196 162.371 70.1308 161.603 70.0004C160.878 69.87 160.259 69.6093 159.747 69.2181C159.235 68.827 158.851 68.2837 158.595 67.5883C158.339 66.9364 158.211 66.0672 158.211 64.9806V33.6885C158.211 32.5151 158.446 31.5589 158.915 30.8201C159.427 30.0813 160.11 29.4076 160.963 28.7991C162.286 27.9299 163.929 27.2345 165.891 26.713C167.854 26.1915 170.051 25.9307 172.483 25.9307ZM172.611 50.834C177.006 50.834 179.203 48.1611 179.203 42.8154C179.203 40.0339 178.649 37.9695 177.539 36.6222C176.473 35.2749 174.915 34.6012 172.867 34.6012C172.057 34.6012 171.331 34.7099 170.691 34.9272C170.051 35.101 169.497 35.3183 169.027 35.5791V49.9213C169.539 50.1821 170.094 50.3994 170.691 50.5732C171.289 50.7471 171.929 50.834 172.611 50.834Z" fill="white"/>
<path d="M212.097 59.6349C209.58 59.6349 207.233 59.2872 205.057 58.5918C202.924 57.853 201.046 56.7665 199.425 55.3322C197.846 53.898 196.588 52.0944 195.649 49.9213C194.753 47.7483 194.305 45.2058 194.305 42.2939C194.305 39.4254 194.753 36.9699 195.649 34.9272C196.588 32.841 197.804 31.1461 199.297 29.8422C200.79 28.4949 202.497 27.517 204.417 26.9086C206.337 26.2567 208.3 25.9307 210.305 25.9307C212.566 25.9307 214.614 26.2784 216.449 26.9738C218.326 27.6692 219.926 28.6253 221.249 29.8422C222.614 31.0591 223.66 32.5151 224.385 34.2101C225.153 35.9051 225.537 37.7522 225.537 39.7514C225.537 41.2291 225.132 42.3591 224.321 43.1414C223.51 43.9237 222.38 44.4235 220.929 44.6408L205.121 47.0529C205.59 48.4871 206.55 49.5736 208.001 50.3125C209.452 51.0079 211.116 51.3555 212.993 51.3555C214.742 51.3555 216.385 51.1382 217.921 50.7036C219.5 50.2256 220.78 49.6823 221.761 49.0738C222.444 49.5084 223.02 50.1169 223.489 50.8992C223.958 51.6815 224.193 52.5073 224.193 53.3765C224.193 55.3322 223.297 56.7882 221.505 57.7443C220.14 58.4832 218.604 58.983 216.897 59.2438C215.19 59.5045 213.59 59.6349 212.097 59.6349ZM210.305 34.0145C209.281 34.0145 208.385 34.1883 207.617 34.536C206.892 34.8837 206.294 35.3401 205.825 35.9051C205.356 36.4266 204.993 37.0351 204.737 37.7304C204.524 38.3824 204.396 39.056 204.353 39.7514L215.297 37.926C215.169 37.0568 214.7 36.1876 213.889 35.3183C213.078 34.4491 211.884 34.0145 210.305 34.0145Z" fill="white"/>
<path d="M229.43 42.7502C229.43 39.8818 229.857 37.4045 230.71 35.3183C231.563 33.1887 232.737 31.4286 234.23 30.0378C235.766 28.647 237.537 27.6257 239.542 26.9738C241.59 26.2784 243.787 25.9307 246.134 25.9307C246.987 25.9307 247.819 26.0176 248.63 26.1915C249.441 26.3219 250.102 26.4957 250.614 26.713V16.1519C251.041 16.0215 251.723 15.8912 252.662 15.7608C253.601 15.5869 254.561 15.5 255.542 15.5C256.481 15.5 257.313 15.5652 258.038 15.6956C258.806 15.826 259.446 16.0867 259.958 16.4779C260.47 16.869 260.854 17.4123 261.11 18.1077C261.366 18.7596 261.494 19.6288 261.494 20.7154V51.6163C261.494 53.659 260.555 55.2888 258.678 56.5057C257.441 57.3315 255.841 58.0486 253.878 58.657C251.915 59.309 249.654 59.6349 247.094 59.6349C244.321 59.6349 241.825 59.2438 239.606 58.4615C237.43 57.6792 235.574 56.5492 234.038 55.0715C232.545 53.5938 231.393 51.8336 230.582 49.7909C229.814 47.7048 229.43 45.3579 229.43 42.7502ZM247.606 34.6012C245.302 34.6012 243.531 35.2749 242.294 36.6222C241.057 37.9695 240.438 40.0122 240.438 42.7502C240.438 45.4448 241.014 47.4875 242.166 48.8783C243.318 50.2256 244.982 50.8992 247.158 50.8992C247.926 50.8992 248.609 50.7905 249.206 50.5732C249.846 50.3125 250.337 50.03 250.678 49.7257V35.3835C249.825 34.862 248.801 34.6012 247.606 34.6012Z" fill="white"/>
<g clip-path="url(#clip0_13_84)">
<path d="M151.179 48.1934C151.075 45.4798 150.937 43.0053 150.801 40.3542C150.589 37.87 150.831 37.9131 150.099 37.2946C149.755 37.0297 149.942 36.6405 150.013 36.2189C151.165 27.7576 158.172 15.6517 153.779 7.80487C153.48 7.34821 152.718 6.49579 152.325 6.16598C151.149 5.29073 149.156 4.81885 147.823 5.06494C140.153 7.78711 140.164 16.1611 142.812 24.1176C143.095 25.1486 147.206 36.2742 147.445 37.3301C147.445 37.3453 147.319 37.3605 147.167 37.3605C146.602 37.3605 146.491 37.528 146.577 38.2434C146.647 38.8015 146.718 40.4506 146.794 43.5507C146.972 47.1558 146.627 56.1138 146.708 58.7725C146.824 59.3865 147.036 59.7924 147.465 60.2186C148.433 61.3303 150.17 61.1679 151.139 60.2846C151.517 59.904 151.507 60.0613 151.411 55.9413C151.331 52.4809 151.3 51.3443 151.179 48.1934ZM149.741 35.2802C149.665 35.6861 149.413 37.1779 149.413 37.2286C149.413 37.2438 149.342 37.2591 149.256 37.2591C149.155 37.2591 149.115 37.1863 149.135 37.0409C149.437 33.2501 149.962 25.5078 149.892 20.6673C149.925 15.6324 149.639 11.2739 148.999 7.51565C148.913 7.17265 148.77 6.90424 148.6 6.65308C148.793 6.68758 148.933 6.74746 149.186 6.86619C150.152 7.35836 150.728 8.45687 150.997 9.56552C151.596 17.3479 150.412 28.335 149.741 35.2802ZM147.732 32.6671C147.813 33.3572 147.616 32.6113 146.96 29.7649C145.469 21.7425 142.932 14.0458 146.47 7.33299C146.666 7.06559 147.399 6.31617 147.162 6.87634C146.608 13.3106 146.938 25.2607 147.732 32.6671ZM147.404 8.97187C147.498 6.96107 147.451 6.55363 148.081 6.81037C148.287 6.93722 148.535 7.33299 148.631 7.70339C149.888 14.5182 149.655 27.3218 148.706 36.8176C147.274 28.299 147.208 17.9314 147.404 8.97187ZM153.96 8.89576C154.076 9.13424 154.232 9.52493 154.313 9.76848C155.611 15.5117 154.009 20.2624 151.684 28.0093C151.599 28.0478 151.731 27.4704 151.81 26.8017C152.407 22.8567 152.914 19.1152 153.374 15.4158C153.677 12.8661 154.029 10.9893 153.859 9.25094C153.738 8.37822 153.728 8.41374 153.96 8.89576ZM146.496 6.03406C147.489 5.46071 148.788 5.32473 149.948 5.59263C153.58 6.74593 153.803 8.638 153.324 12.7266C152.442 19.0619 151.733 26.0614 150.538 31.8147C150.646 30.051 150.967 26.7707 151.028 25.5636C151.396 20.0229 151.613 14.5126 151.568 11.6864C151.562 9.07081 151.19 7.79979 149.514 6.59219C147.219 5.58654 146.131 6.42678 145.174 9.15453C143.172 15.2392 145.083 23.0505 146.839 31.013C147.006 31.7183 147.142 32.312 147.137 32.3323C145.219 26.1142 138.36 11.042 146.496 6.03406ZM143.216 9.18498C139.612 16.3144 146.754 30.6021 147.818 36.6451C147.97 37.3758 147.965 37.3098 147.899 37.3098C147.874 37.3098 147.848 37.2895 147.848 37.2591C144.699 27.1203 138.676 16.566 143.216 9.18498ZM147.954 37.7309C149.731 37.6396 149.837 37.6447 150.013 37.7969C150.295 37.836 150.313 39.2343 150.336 39.7808C149.564 39.8158 147.96 40.0096 147.107 40.1512C147.065 39.384 147.029 38.494 146.975 37.7766L147.954 37.7309ZM151.078 59.7366C149.942 61.1248 147.708 60.761 147.182 59.0009C147.056 58.5747 147.046 57.9962 147.127 55.9616C147.248 52.7822 147.242 43.2143 147.122 40.5622C147.926 40.4643 149.539 40.1644 150.362 40.2019L150.392 40.5165C150.675 44.223 151.103 55.7743 151.078 59.7366Z" fill="white"/>
<path d="M150.337 39.7808C149.564 39.8158 147.961 40.0097 147.107 40.1512C147.065 39.3841 147.03 38.4941 146.976 37.7766L147.955 37.731C149.731 37.6396 149.837 37.6447 150.014 37.7969C150.296 37.836 150.313 39.2344 150.337 39.7808Z" fill="white"/>
<path d="M150.392 40.5165L150.362 40.202C149.539 40.1644 147.926 40.4643 147.122 40.5622C147.242 43.2144 147.248 52.7823 147.127 55.9616C147.046 57.9962 147.056 58.5747 147.183 59.0009C147.708 60.761 149.942 61.1248 151.078 59.7366C151.104 55.7744 150.675 44.2231 150.392 40.5165ZM149.075 58.874C148.155 58.6863 148.488 56.1204 148.848 55.9667C150.635 55.6663 150.53 58.5123 149.075 58.874Z" fill="white"/>
</g>
<defs>
<clipPath id="clip0_13_84">
<rect width="14" height="56" fill="white" transform="translate(141.211 5)"/>
</clipPath>
</defs>
</svg>
